<?xml version="1.0" encoding="utf-8"?>
<!-- Generator: Adobe Illustrator 16.0.0, SVG Export Plug-In . SVG Version: 6.00 Build 0)  -->
<!DOCTYPE svg PUBLIC "-//W3C//DTD SVG 1.1//EN" "http://www.w3.org/Graphics/SVG/1.1/DTD/svg11.dtd">
<svg version="1.1" id="twitter_1_" xmlns="http://www.w3.org/2000/svg" xmlns:xlink="http://www.w3.org/1999/xlink" x="0px" y="0px"
	 width="27px" height="27px" viewBox="0 0 27 27" enable-background="new 0 0 27 27" xml:space="preserve">
<g id="twitter">
	<g>
		<path fill="#363636" d="M23.014,5.417c0.623-0.885,1.618-1.771,2.24-2.656c-1.594,0.458-2.552,0.722-3.359,0.759
			c-1.111-0.622-2.005-1.238-4.479-1.518c-0.871,0.379-1.611,0.606-2.613,1.518c-2.064,1.946-1.641,3.231-1.493,5.313
			C8.641,8.76,3.031,4.562,2.857,3.141c-0.125,0-0.622,0.379-0.747,0.379C1.82,5.717,1.985,6.897,2.483,8.833
			c0.498,0.506,0.996,1.012,1.493,1.519c-0.622,0-1.552,0.172-2.24-0.76c-0.098,2.674,1.611,4.232,3.733,4.934
			c0.466,1.101-1.093,0.559-1.866,0.76c0.531,1.416,1.898,2.822,4.479,3.036c0,0.126,0,0.253,0,0.379
			c-1.237,1.317-2.877,2.075-5.226,2.277c0,0.214-1.867-0.214-1.867,0c0,0.165,1.867,0.974,1.867,1.139
			c15.848,4.321,20.118-8.422,20.531-14.801C23.992,6.11,25.213,5.8,26,4.658C25.13,4.911,23.885,5.164,23.014,5.417z"/>
	</g>
</g>
</svg>
